<?xml version="1.0" encoding="utf-8"?><svg xmlns="http://www.w3.org/2000/svg" xmlns:xlink="http://www.w3.org/1999/xlink"><symbol viewBox="0 0 17 17" id="arrow" xmlns="http://www.w3.org/2000/svg"><g clip-path="url(#aa)"><path d="M8.215 1c2.146 0 3.975.755 5.485 2.265 1.51 1.51 2.265 3.338 2.265 5.485 0 2.147-.755 3.975-2.265 5.485-1.51 1.51-3.338 2.265-5.485 2.265-2.147 0-3.975-.755-5.485-2.265C1.22 12.725.465 10.897.465 8.75c0-2.147.755-3.975 2.265-5.485C4.24 1.755 6.068 1 8.215 1ZM7.31 5.5l2.375 2.25h-5.72a.712.712 0 0 0-.53.22.75.75 0 0 0-.22.53V9c0 .21.073.387.22.53a.75.75 0 0 0 .53.22h5.72L7.31 12a.746.746 0 0 0-.22.55c0 .22.073.402.22.545l.345.345c.143.147.32.22.53.22.21 0 .387-.073.53-.22l4.125-4.155a.728.728 0 0 0 .22-.535.712.712 0 0 0-.22-.53L8.715 4.065a.722.722 0 0 0-.53-.22.722.722 0 0 0-.53.22l-.35.34a.755.755 0 0 0-.215.55c0 .22.073.403.22.55V5.5Z"/></g><defs><clipPath id="aa"><path transform="translate(.215 .75)" d="M0 0h16v16H0z"/></clipPath></defs></symbol><symbol viewBox="0 0 17 17" id="facebook" xmlns="http://www.w3.org/2000/svg"><g clip-path="url(#ba)"><path d="M12.32 6.17h-2.5V4.795c0-.72.095-1.125 1.125-1.125h1.375V.92H10.1c-2.655 0-3.565 1.345-3.565 3.595V6.17h-1.65v2.75h1.65v8H9.82v-8h2.22l.28-2.75Z"/></g><defs><clipPath id="ba"><path transform="translate(.6 .92)" d="M0 0h16v16H0z"/></clipPath></defs></symbol><symbol viewBox="0 0 16 17" id="linkedin" xmlns="http://www.w3.org/2000/svg"><g clip-path="url(#ca)"><path d="M.65 6.42v9.7H3.9V6.37H.65v.05Zm1.65-4.7c1.1 0 1.8.75 1.8 1.65 0 .9-.7 1.7-1.8 1.7h-.05c-1.1 0-1.8-.75-1.8-1.65 0-.9.75-1.65 1.85-1.65v-.05Zm9.5 4.45c2.15 0 3.75 1.4 3.75 4.35v5.6H12.3v-5.2c0-1.3-.5-2.2-1.65-2.2-.85 0-1.4.6-1.65 1.15l-.1.85v5.4H5.7V6.37h3.2v1.45a3.15 3.15 0 0 1 2.9-1.65Z"/></g><defs><clipPath id="ca"><path transform="translate(0 .92)" d="M0 0h16v16H0z"/></clipPath></defs></symbol><symbol viewBox="0 0 17 17" id="youtube" xmlns="http://www.w3.org/2000/svg"><g clip-path="url(#da)"><path d="M15.68 5.253c.053.222.103.5.15.836.048.334.08.662.098.982.018.32.033.62.045.902.012.282.015.514.009.698v.249c0 1.668-.1 2.899-.302 3.693a1.96 1.96 0 0 1-.503.836c-.24.24-.527.406-.862.497-.352.095-1.02.165-2 .21-.98.044-1.878.076-2.693.097H8.4c-3.17 0-5.143-.102-5.916-.307-.723-.201-1.178-.646-1.364-1.333-.092-.35-.162-.835-.21-1.458a39.332 39.332 0 0 1-.093-1.569V8.92c0-1.648.101-2.87.303-3.667.094-.332.262-.62.502-.862.24-.243.527-.408.862-.493.35-.092 1.016-.162 2-.21.984-.047 1.882-.08 2.693-.102H8.4c3.167 0 5.139.103 5.915.307a1.949 1.949 0 0 1 1.364 1.36ZM6.844 11.2l3.973-2.28-3.973-2.25v4.53Z"/></g><defs><clipPath id="da"><path transform="translate(.4 .92)" d="M0 0h16v16H0z"/></clipPath></defs></symbol></svg>